<svg width="576" height="512" xmlns="http://www.w3.org/2000/svg" xmlns:xlink="http://www.w3.org/1999/xlink" xml:space="preserve" overflow="hidden"><defs><clipPath id="clip0"><rect x="320" y="-19" width="576" height="512"/></clipPath></defs><g clip-path="url(#clip0)" transform="translate(-320 19)"><path d="M832 13 384 13C348.65 13 320 41.65 320 77L320 397C320 432.35 348.65 461 384 461L832 461C867.35 461 896 432.35 896 397L896 77C896 41.65 867.3 13 832 13ZM496 109C531.35 109 560 137.65 560 173 560 208.35 531.35 237 496 237 460.65 237 432 208.35 432 173 432 137.65 460.7 109 496 109ZM592 365 400 365C391.16 365 384 357.8 384 349 384 304.8 419.82 269 464 269L528 269C572.18 269 608 304.82 608 349 608 357.8 600.8 365 592 365ZM816 301 688 301C679.2 301 672 293.8 672 285 672 276.2 679.2 269 688 269L816 269C824.8 269 832 276.2 832 285 832 293.8 824.8 301 816 301ZM816 237 688 237C679.2 237 672 229.8 672 221 672 212.2 679.2 205 688 205L816 205C824.8 205 832 212.2 832 221 832 229.8 824.8 237 816 237ZM816 173 688 173C679.2 173 672 165.8 672 157 672 148.2 679.2 141 688 141L816 141C824.8 141 832 148.2 832 157 832 165.8 824.8 173 816 173Z" fill="#24292F"/></g></svg>