<svg width="512" height="512" xmlns="http://www.w3.org/2000/svg" xmlns:xlink="http://www.w3.org/1999/xlink" xml:space="preserve" overflow="hidden"><defs><clipPath id="clip0"><rect x="38" y="302" width="512" height="512"/></clipPath></defs><g clip-path="url(#clip0)" transform="translate(-38 -302)"><path d="M102 702C102 710.8 109.16 718 118 718L518 718C535.7 718 550 732.3 550 750 550 767.7 535.7 782 518 782L118 782C73.82 782 38 746.2 38 702L38 366C38 348.33 52.33 334 70 334 87.67 334 102 348.33 102 366L102 702ZM380.6 580.6C368.1 593.1 347.9 593.1 335.4 580.6L278 523.3 188.6 612.6C176.1 625.1 155.9 625.1 143.4 612.6 130.88 600.1 130.88 579.9 143.4 567.4L255.4 455.4C267.9 442.9 288.1 442.9 300.6 455.4L358 512.7 463.4 407.4C475.9 394.88 496.1 394.88 508.6 407.4 521.1 419.9 521.1 440.1 508.6 452.6L380.6 580.6Z" fill="#1565C0"/></g></svg>