<svg width="640" height="512" xmlns="http://www.w3.org/2000/svg" xmlns:xlink="http://www.w3.org/1999/xlink" xml:space="preserve" overflow="hidden"><defs><clipPath id="clip0"><rect x="608" y="240" width="640" height="512"/></clipPath></defs><g clip-path="url(#clip0)" transform="translate(-608 -240)"><path d="M1022.8 280.79 894.8 728.8C889.9 745.8 872.2 755.6 855.2 750.8 838.2 745.9 828.4 728.2 833.2 711.2L961.2 263.21C966.1 246.216 983.8 236.376 1000.8 241.232 1017.8 246.087 1027.6 263.8 1022.8 280.79L1022.8 280.79ZM1126.6 361.4 1238.6 473.4C1251.1 485.9 1251.1 506.1 1238.6 518.6L1126.6 630.6C1114.1 643.1 1093.9 643.1 1081.4 630.6 1068.9 618.1 1068.9 597.9 1081.4 585.4L1170.7 496 1081.4 406.6C1068.9 394.1 1068.9 373.9 1081.4 361.4 1093.9 348.9 1114.1 348.9 1126.6 361.4L1126.6 361.4ZM774.6 406.6 685.25 496 774.6 585.4C787.1 597.9 787.1 618.1 774.6 630.6 762.1 643.1 741.9 643.1 729.4 630.6L617.372 518.6C604.876 506.1 604.876 485.9 617.372 473.4L729.4 361.4C741.9 348.9 762.1 348.9 774.6 361.4 787.1 373.9 787.1 394.1 774.6 406.6L774.6 406.6Z" fill="#1565C0"/></g></svg>