<svg width="576" height="512" xmlns="http://www.w3.org/2000/svg" xmlns:xlink="http://www.w3.org/1999/xlink" xml:space="preserve" overflow="hidden"><defs><clipPath id="clip0"><rect x="352" y="135" width="576" height="512"/></clipPath></defs><g clip-path="url(#clip0)" transform="translate(-352 -135)"><path d="M880 135 400 135C373.5 135 352 156.5 352 183L352 503C352 529.5 373.5 551 400 551L592 551 576 599 504 599C490.8 599 480 609.8 480 623 480 636.2 490.8 647 504 647L776 647C789.25 647 800 636.25 800 623 800 609.75 789.25 599 776 599L704 599 688 551 880 551C906.5 551 928 529.5 928 503L928 183C928 156.5 906.5 135 880 135ZM864 423 416 423 416 199 864 199 864 423Z" fill="#1565C0"/></g></svg>