<svg width="640" height="512" xmlns="http://www.w3.org/2000/svg" xmlns:xlink="http://www.w3.org/1999/xlink" xml:space="preserve" overflow="hidden"><defs><clipPath id="clip0"><rect x="-71" y="305" width="640" height="512"/></clipPath></defs><g clip-path="url(#clip0)" transform="translate(71 -305)"><path d="M409.07 401 89 401C0.634399 400.987-71.0102 472.612-71.0229 560.977-71.0355 649.343 0.588699 720.987 88.954 721 131.952 721.006 173.142 703.706 203.24 673L294.76 673C356.616 736.106 457.917 737.119 521.023 675.263 584.129 613.407 585.142 512.106 523.286 449 493.205 418.311 452.043 401.013 409.07 401ZM177 573C177 579.627 171.627 585 165 585L113 585 113 637C113 643.627 107.627 649 101 649L77 649C70.373 649 65 643.627 65 637L65 585 13 585C6.3726 585 1 579.627 1 573L1 549C1 542.373 6.3726 537 13 537L65 537 65 485C65 478.373 70.373 473 77 473L101 473C107.627 473 113 478.373 113 485L113 537 165 537C171.627 537 177 542.373 177 549ZM393 649C370.909 649 353 631.091 353 609 353 586.909 370.909 569 393 569 415.091 569 433 586.909 433 609 433 631.091 415.091 649 393 649ZM457 553C434.909 553 417 535.091 417 513 417 490.909 434.909 473 457 473 479.091 473 497 490.909 497 513 497 535.091 479.091 553 457 553Z" fill="#1565C0"/></g></svg>