<svg width="640" height="512" xmlns="http://www.w3.org/2000/svg" xmlns:xlink="http://www.w3.org/1999/xlink" xml:space="preserve" overflow="hidden"><defs><clipPath id="clip0"><rect x="806" y="60" width="640" height="512"/></clipPath></defs><g clip-path="url(#clip0)" transform="translate(-806 -60)"><path d="M1092.3 215.1C1093.4 221.9 1094 228.9 1094 235.1 1094 243.1 1093.4 250.1 1092.3 256.9L1114.5 276.7C1121.5 283 1124.4 292.1 1120.7 301.7 1118.4 306.1 1115.9 312.2 1113.1 317.2L1110 322.6C1106.1 327.6 1103.7 332.4 1100.2 337.1 1094.5 344.7 1084.5 347.2 1075.5 344.2L1047.2 334.9C1036.5 343.8 1024.3 350.9 1011 355.9L1004.1 384.9C1003 394.2 995.8 401.6 986.4 402.8 979.7 403.6 972.9 404 966 404 959.1 404 952.3 403.6 945.6 402.8 936.2 401.6 928.1 394.2 927 384.9L920.1 355.9C907.7 350.9 895.5 343.8 884.75 334.9L856.53 344.2C847.54 347.2 837.52 344.7 831.82 337.1 828.28 332.4 824.98 327.5 821.94 322.5L818.92 317.2C816.13 312.2 813.592 307 811.324 301.7 807.62 292.1 810.458 283 817.52 276.7L839.7 256.9C838.58 250.1 837.1 243.1 837.1 235.1 837.1 228.9 838.58 221.9 839.7 215.1L817.52 195.3C810.458 188.1 807.62 179 811.324 170.3 813.592 164.1 816.13 159.79 818.91 154.76L821.95 149.51C824.98 144.46 828.28 139.58 831.82 134.89 837.52 127.34 847.54 124.83 856.53 127.79L884.75 137.09C895.5 128.25 907.7 121.13 920.1 116.15L927 87.08C928.1 77.8 936.2 70.37 945.6 69.231 952.3 68.418 959.1 68 966 68 972.9 68 979.7 68.418 986.4 69.23 995.8 70.37 1003 77.8 1004.1 87.08L1011 116.15C1024.3 121.13 1036.5 128.25 1047.2 137.09L1075.5 127.79C1084.5 124.83 1094.5 127.34 1100.2 134.89 1103.7 139.56 1106.1 144.42 1110 149.44L1113.1 154.83C1115.9 159.84 1118.4 165 1120.7 170.3 1124.4 179 1121.5 188.1 1114.5 195.3L1092.3 215.1ZM966 187.1C939.5 187.1 918 209.5 918 235.1 918 262.5 939.5 283.1 966 283.1 992.5 283.1 1014 262.5 1014 235.1 1014 209.5 992.5 187.1 966 187.1ZM1290.9 538.3C1284.1 539.4 1277.1 540 1270 540 1262.9 540 1255.9 539.4 1249.1 538.3L1229.3 560.5C1222.1 567.5 1213 570.4 1204.3 566.7 1199 564.4 1193.8 561.9 1188.8 559.1L1183.4 556C1178.4 552.1 1173.6 549.7 1168.9 546.2 1161.3 540.5 1158.8 530.5 1161.8 521.5L1171.1 493.2C1162.2 482.5 1155.1 470.3 1150.1 457L1121.1 450.1C1111.8 449 1104.4 441.8 1103.2 432.4 1102.4 425.7 1102 418.9 1102 412 1102 405.1 1102.4 398.3 1103.2 391.6 1104.4 382.2 1111.8 374.1 1121.1 373L1150.1 366.1C1155.1 353.7 1162.2 341.5 1171.1 330.8L1161.8 302.5C1158.8 293.5 1161.3 283.5 1168.9 277.8 1173.6 274.3 1178.5 270.1 1183.5 267.9L1188.8 264.9C1193.8 262.1 1198.1 259.6 1204.3 257.3 1213 253.6 1222.1 256.5 1229.3 263.5L1249.1 285.7C1255.9 284.6 1262.9 284 1270 284 1277.1 284 1284.1 284.6 1290.9 285.7L1310.7 263.5C1317 256.5 1326.1 253.6 1335.7 257.3 1341 259.6 1346.2 262.1 1351.2 264.9L1356.5 267.9C1361.5 270.1 1366.4 274.3 1371.1 277.8 1378.7 283.5 1381.2 293.5 1378.2 302.5L1368.9 330.8C1377.8 341.5 1384.9 353.7 1389.9 366.1L1418.9 373C1428.2 374.1 1435.6 382.2 1436.8 391.6 1437.6 398.3 1438 405.1 1438 412 1438 418.9 1437.6 425.7 1436.8 432.4 1435.6 441.8 1428.2 449 1418.9 450.1L1389.9 457C1384.9 470.3 1377.8 482.5 1368.9 493.2L1378.2 521.5C1381.2 530.5 1378.7 540.5 1371.1 546.2 1366.4 549.7 1361.6 552.1 1356.6 556L1351.2 559.1C1346.2 561.9 1340.1 564.4 1335.7 566.7 1326.1 570.4 1317 567.5 1310.7 560.5L1290.9 538.3ZM1318 412C1318 385.5 1296.5 364 1270 364 1243.5 364 1222 385.5 1222 412 1222 438.5 1243.5 460 1270 460 1296.5 460 1318 438.5 1318 412Z" fill="#1565C0"/></g></svg>