<svg width="512" height="512" xmlns="http://www.w3.org/2000/svg" xmlns:xlink="http://www.w3.org/1999/xlink" xml:space="preserve" overflow="hidden"><defs><clipPath id="clip0"><rect x="0" y="-45" width="512" height="512"/></clipPath></defs><g clip-path="url(#clip0)" transform="matrix(1 0 0 1 0 45)"><path d="M480 243 32 243C14.38 243 0 257.38 0 275L0 403C0 420.62 14.38 435 32 435L480 435C497.62 435 512 420.62 512 403L512 275C512 257.4 497.6 243 480 243ZM352 363C338.75 363 328 352.25 328 339 328 325.75 338.75 315 352 315 365.25 315 376 325.75 376 339 376 352.25 365.3 363 352 363ZM416 363C402.75 363 392 352.25 392 339 392 325.75 402.75 315 416 315 429.25 315 440 325.75 440 339 440 352.25 429.3 363 416 363ZM480-13 32-13C14.38-13 0 1.38 0 19L0 147C0 164.62 14.38 179 32 179L480 179C497.62 179 512 164.62 512 147L512 19C512 1.38 497.6-13 480-13ZM352 107C338.75 107 328 96.25 328 83 328 69.75 338.8 59 352 59 365.2 59 376 69.8 376 83 376 96.2 365.3 107 352 107ZM416 107C402.75 107 392 96.25 392 83 392 69.75 402.8 59 416 59 429.2 59 440 69.8 440 83 440 96.2 429.3 107 416 107Z" fill="#1565C0"/></g></svg>